<svg width="64" height="65" viewBox="0 0 64 65" fill="none" xmlns="http://www.w3.org/2000/svg">
<circle cx="32" cy="32.5" r="32" fill="white"/>
<path d="M14 17.0788C14 15.655 15.1835 14.5 16.6436 14.5H47.3564C48.8164 14.5 50 15.655 50 17.0788V47.9212C50 49.3455 48.8164 50.5 47.3564 50.5L16.6436 50.5C15.1835 50.5 14 49.3455 14 47.9212V17.0788ZM25.1226 44.6357V28.3797H19.7194V44.6357H25.1226ZM22.421 26.1602C24.3052 26.1602 25.4779 24.9119 25.4779 23.352C25.4428 21.7569 24.3052 20.5432 22.4567 20.5432C20.6085 20.5432 19.4 21.7569 19.4 23.352C19.4 24.9119 20.5725 26.1602 22.3858 26.1602H22.421ZM33.4656 44.6357V35.5577C33.4656 35.0718 33.5008 34.5865 33.6434 34.2392C34.034 33.2684 34.9231 32.2631 36.4157 32.2631C38.3709 32.2631 39.153 33.7538 39.153 35.9391V44.6357H44.5557V35.3148C44.5557 30.3216 41.8901 27.9983 38.3352 27.9983C35.469 27.9983 34.1839 29.5736 33.4658 30.6813V30.7373H33.4297C33.4416 30.7187 33.4536 30.7001 33.4658 30.6813V28.3797H28.0626C28.1336 29.9051 28.0626 44.6357 28.0626 44.6357H33.4656Z" fill="#327CE5"/>
</svg>
