<svg width="140" height="100" viewBox="0 0 140 100" fill="none" xmlns="http://www.w3.org/2000/svg">
<ellipse cx="64.2192" cy="50" rx="52.027" ry="50" fill="#829DFF"/>
<path d="M36.0481 67.3438C36.0481 66.3854 36.0898 65.4479 36.1731 64.5312C36.2565 63.6146 36.2981 62.5417 36.2981 61.3125C36.2981 55.7708 36.2773 50.2188 36.2356 44.6562C36.2148 39.0938 36.1211 33.4688 35.9544 27.7812C35.7252 27.3438 35.5169 26.8646 35.3294 26.3438C35.1627 25.8229 35.0794 25.375 35.0794 25C35.0794 24.1042 35.319 23.3542 35.7981 22.75C36.2981 22.125 37.1419 21.8125 38.3294 21.8125C38.9336 21.8125 39.5273 21.8958 40.1106 22.0625C40.694 22.2083 41.319 22.2812 41.9856 22.2812C43.444 22.2812 44.8919 22.2083 46.3294 22.0625C47.7669 21.8958 49.2356 21.8125 50.7356 21.8125C53.7981 21.8125 56.5377 22.1146 58.9544 22.7188C61.3919 23.3021 63.5273 24.125 65.3606 25.1875C67.194 26.2292 68.7565 27.4792 70.0481 28.9375C71.3398 30.375 72.3815 31.9583 73.1731 33.6875C73.9856 35.3958 74.5794 37.2188 74.9544 39.1562C75.3294 41.0729 75.5169 43.0208 75.5169 45C75.5169 46.7708 75.3294 48.6667 74.9544 50.6875C74.6002 52.6875 74.0065 54.6771 73.1731 56.6562C72.3398 58.6146 71.2565 60.5 69.9231 62.3125C68.5898 64.1042 66.944 65.6875 64.9856 67.0625C63.0273 68.4375 60.7356 69.5417 58.1106 70.375C55.5065 71.1875 52.5169 71.5938 49.1419 71.5938C48.3502 71.5938 47.5586 71.5521 46.7669 71.4688C45.9961 71.4062 45.2148 71.3229 44.4231 71.2188C43.6315 71.1354 42.8294 71.0625 42.0169 71C41.2252 70.9167 40.4127 70.875 39.5794 70.875C38.3086 70.875 37.4023 70.5833 36.8606 70C36.319 69.4167 36.0481 68.5312 36.0481 67.3438ZM43.0169 64.125C43.4544 64.25 43.9752 64.3542 44.5794 64.4375C45.2044 64.5 45.8294 64.5521 46.4544 64.5938C47.0794 64.6354 47.6627 64.6667 48.2044 64.6875C48.7669 64.6875 49.2044 64.6875 49.5169 64.6875C52.1002 64.6875 54.3606 64.3646 56.2981 63.7188C58.2356 63.0729 59.8919 62.2292 61.2669 61.1875C62.6627 60.1458 63.819 58.9688 64.7356 57.6562C65.6523 56.3438 66.3711 55.0208 66.8919 53.6875C67.4336 52.3542 67.8086 51.0729 68.0169 49.8438C68.2252 48.6146 68.3294 47.5625 68.3294 46.6875C68.3294 43.2292 67.9127 40.3542 67.0794 38.0625C66.2669 35.75 65.0586 33.9062 63.4544 32.5312C61.8711 31.1562 59.9127 30.1875 57.5794 29.625C55.2669 29.0625 52.6002 28.7812 49.5794 28.7812C49.1836 28.7812 48.694 28.7917 48.1106 28.8125C47.5481 28.8333 46.9544 28.8542 46.3294 28.875C45.7044 28.8958 45.0794 28.9271 44.4544 28.9688C43.8502 29.0104 43.3086 29.0417 42.8294 29.0625L43.0169 64.125Z" fill="white"/>
<path d="M73.819 63.4752C73.819 63.1158 73.9049 62.7877 74.0768 62.4908C74.2487 62.1939 74.4596 61.9439 74.7096 61.7408C74.9753 61.522 75.2643 61.358 75.5768 61.2486C75.8893 61.1236 76.194 61.0611 76.4909 61.0611C76.8503 61.0611 77.1549 61.1002 77.4049 61.1783C77.6549 61.2564 77.8737 61.3658 78.0612 61.5064C78.2487 61.647 78.4128 61.8111 78.5534 61.9986C78.694 62.1861 78.8424 62.3892 78.9987 62.608C79.6237 63.5455 80.5378 64.272 81.7409 64.7877C82.944 65.2877 84.5143 65.5377 86.4518 65.5377C87.2487 65.5377 87.9987 65.4673 88.7018 65.3267C89.4206 65.1861 90.0456 64.9752 90.5768 64.6939C91.1237 64.4127 91.5534 64.0689 91.8659 63.6627C92.194 63.2564 92.3581 62.7877 92.3581 62.2564C92.3581 61.5377 92.1471 60.9283 91.7253 60.4283C91.319 59.9283 90.7721 59.4986 90.0846 59.1392C89.4128 58.7798 88.6471 58.4752 87.7878 58.2252C86.9284 57.9752 86.0456 57.733 85.1393 57.4986C84.3112 57.2955 83.4753 57.0767 82.6315 56.8423C81.7878 56.5923 80.9674 56.3111 80.1706 55.9986C79.3737 55.6705 78.6237 55.2877 77.9206 54.8502C77.2331 54.397 76.6315 53.8658 76.1159 53.2564C75.6003 52.647 75.1862 51.9439 74.8737 51.147C74.5768 50.3345 74.4284 49.4048 74.4284 48.358C74.4284 46.9517 74.7565 45.7642 75.4128 44.7955C76.0846 43.8111 76.944 43.0142 77.9909 42.4048C79.0534 41.7955 80.2331 41.358 81.5299 41.0923C82.8268 40.8111 84.1003 40.6705 85.3503 40.6705C86.069 40.6705 86.7253 40.7095 87.319 40.7877C87.9128 40.8658 88.4674 40.9673 88.9831 41.0923C89.4987 41.2173 89.9909 41.3736 90.4596 41.5611C90.9284 41.733 91.3971 41.9127 91.8659 42.1002C91.9284 41.8658 92.0221 41.6314 92.1471 41.397C92.2878 41.147 92.4518 40.9283 92.6393 40.7408C92.8268 40.5377 93.0456 40.3736 93.2956 40.2486C93.5456 40.1236 93.8268 40.0611 94.1393 40.0611C94.9049 40.0611 95.4987 40.2095 95.9206 40.5064C96.3424 40.8033 96.5534 41.3267 96.5534 42.0767C96.5534 42.6705 96.5299 43.2877 96.4831 43.9283C96.4362 44.5689 96.4128 45.272 96.4128 46.0377C96.4909 46.2252 96.5456 46.4361 96.5768 46.6705C96.6081 46.8892 96.6237 47.0845 96.6237 47.2564C96.6237 47.6314 96.5612 47.9517 96.4362 48.2173C96.3112 48.4673 96.1393 48.6783 95.9206 48.8502C95.7018 49.0064 95.444 49.1236 95.1471 49.2017C94.8659 49.2798 94.5534 49.3189 94.2096 49.3189C93.8971 49.3189 93.5924 49.2642 93.2956 49.1548C93.0143 49.0455 92.7565 48.9048 92.5221 48.733C92.2878 48.5455 92.0846 48.3345 91.9128 48.1002C91.7409 47.8658 91.6081 47.6236 91.5143 47.3736C91.2643 47.1705 90.944 46.9439 90.5534 46.6939C90.1784 46.4283 89.7253 46.1861 89.194 45.9673C88.6784 45.7486 88.0846 45.5689 87.4128 45.4283C86.7409 45.272 85.9987 45.1939 85.1862 45.1939C84.3893 45.1939 83.6471 45.272 82.9596 45.4283C82.2878 45.5689 81.7018 45.7798 81.2018 46.0611C80.7174 46.3423 80.3346 46.6783 80.0534 47.0689C79.7721 47.4595 79.6315 47.897 79.6315 48.3814C79.6315 49.0064 79.819 49.5455 80.194 49.9986C80.5846 50.4361 81.1003 50.8267 81.7409 51.1705C82.3815 51.4986 83.1237 51.7955 83.9674 52.0611C84.8268 52.3267 85.7174 52.5845 86.6393 52.8345C87.9049 53.1783 89.1784 53.5611 90.4596 53.983C91.7565 54.4048 92.9206 54.9517 93.9518 55.6236C94.9987 56.2798 95.8503 57.1158 96.5065 58.1314C97.1628 59.1314 97.4909 60.3892 97.4909 61.9048C97.4909 63.0767 97.3112 64.0923 96.9518 64.9517C96.5924 65.8111 96.1159 66.5533 95.5221 67.1783C94.9284 67.7877 94.2331 68.2955 93.4362 68.7017C92.6549 69.0923 91.8346 69.397 90.9753 69.6158C90.1315 69.8502 89.2721 70.0064 88.3971 70.0845C87.5221 70.1783 86.694 70.2252 85.9128 70.2252C84.819 70.2252 83.7643 70.1236 82.7487 69.9205C81.7331 69.7173 80.7721 69.4439 79.8659 69.1002C78.9753 68.7564 78.1549 68.358 77.4049 67.9048C76.6706 67.4517 76.0378 66.9752 75.5065 66.4752C74.9753 65.9752 74.5612 65.4673 74.2643 64.9517C73.9674 64.4361 73.819 63.9439 73.819 63.4752Z" fill="white"/>
</svg>
