<svg width="64" height="65" viewBox="0 0 64 65" fill="none" xmlns="http://www.w3.org/2000/svg">
<circle cx="32" cy="32.5" r="32" fill="white"/>
<path d="M32 14.5C22.055 14.5 14 22.555 14 32.5C14 40.465 19.1525 47.1925 26.3075 49.5775C27.2075 49.735 27.545 49.195 27.545 48.7225C27.545 48.295 27.5225 46.8775 27.5225 45.37C23 46.2025 21.83 44.2675 21.47 43.255C21.2675 42.7375 20.39 41.14 19.625 40.7125C18.995 40.375 18.095 39.5425 19.6025 39.52C21.02 39.4975 22.0325 40.825 22.37 41.365C23.99 44.0875 26.5775 43.3225 27.6125 42.85C27.77 41.68 28.2425 40.8925 28.76 40.4425C24.755 39.9925 20.57 38.44 20.57 31.555C20.57 29.5975 21.2675 27.9775 22.415 26.7175C22.235 26.2675 21.605 24.4225 22.595 21.9475C22.595 21.9475 24.1025 21.475 27.545 23.7925C28.985 23.3875 30.515 23.185 32.045 23.185C33.575 23.185 35.105 23.3875 36.545 23.7925C39.9875 21.4525 41.495 21.9475 41.495 21.9475C42.485 24.4225 41.855 26.2675 41.675 26.7175C42.8225 27.9775 43.52 29.575 43.52 31.555C43.52 38.4625 39.3125 39.9925 35.3075 40.4425C35.96 41.005 36.5225 42.085 36.5225 43.7725C36.5225 46.18 36.5 48.115 36.5 48.7225C36.5 49.195 36.8375 49.7575 37.7375 49.5775C41.3108 48.3712 44.4159 46.0746 46.6156 43.0112C48.8154 39.9477 49.999 36.2715 50 32.5C50 22.555 41.945 14.5 32 14.5Z" fill="#327CE5"/>
</svg>
