<svg width="64" height="65" viewBox="0 0 64 65" fill="none" xmlns="http://www.w3.org/2000/svg">
<circle cx="32" cy="32.5" r="32" fill="white"/>
<path d="M14.1116 22.4997C14.5664 20.4959 16.3585 19 18.5 19H45.5C47.6415 19 49.4336 20.4959 49.8884 22.4997L32 33.4316L14.1116 22.4997ZM14 25.0684V41.0513L27.0572 33.0478L14 25.0684ZM29.2132 34.3654L14.4317 43.4258C15.1534 44.9476 16.7038 46 18.5 46H45.5C47.2962 46 48.8466 44.9476 49.5683 43.4258L34.7868 34.3654L32 36.0684L29.2132 34.3654ZM36.9428 33.0478L50 41.0513V25.0684L36.9428 33.0478Z" fill="#327CE5"/>
</svg>
