<svg width="64" height="65" viewBox="0 0 64 65" fill="none" xmlns="http://www.w3.org/2000/svg">
<circle cx="32" cy="32.5" r="32" fill="white"/>
<path fill-rule="evenodd" clip-rule="evenodd" d="M18.2407 15.6499C19.9105 13.9802 22.6659 14.1517 24.1156 16.0157L28.1515 21.2046C28.8921 22.1568 29.1538 23.3967 28.8612 24.567L27.6299 29.4924C27.4999 30.0124 27.6522 30.5625 28.0312 30.9415L33.5585 36.4688C33.9375 36.8478 34.4876 37.0001 35.0076 36.8701L39.933 35.6388C41.1033 35.3462 42.3432 35.6079 43.2954 36.3486L48.4843 40.3844C50.3483 41.8341 50.5198 44.5895 48.8501 46.2593L46.5238 48.5856C44.8594 50.25 42.37 50.9808 40.0499 50.1651C34.2895 48.1399 28.8824 44.8242 24.2791 40.2209C19.6758 35.6176 16.3601 30.2105 14.3349 24.4501C13.5192 22.13 14.25 19.6406 15.9144 17.9762L18.2407 15.6499Z" fill="#327CE5"/>
</svg>
